
<svg id="tracing" xmlns="http://www.w3.org/2000/svg" viewBox="0 0 1186.37 536.97"><defs><style>.cls-1,.cls-4{fill:#fff;}.cls-2{fill:#231f20;}.cls-3,.cls-5,.cls-6,.cls-7,.cls-8,.cls-9{fill:none;}.cls-3,.cls-4,.cls-5,.cls-6,.cls-7,.cls-8,.cls-9{stroke:#231f20;stroke-miterlimit:10;}.cls-5{stroke-width:2px;}.cls-6{stroke-width:0.5px;}.cls-7{stroke-width:1.01px;}.cls-8{stroke-width:1.31px;}.cls-9{stroke-width:1.32px;}</style></defs><title>Artboard 1</title><polygon class="cls-1" points="313.89 51.28 168.28 50.68 158.09 57.27 316.29 54.87 313.89 51.28"/><path class="cls-2" d="M156.36,57.79l7.73-4.9,4.19-.71,145.88-1.4,3.06,4.58Z"/><path class="cls-3" d="M111.35,81.24S91,101,78.4,125.58s-13.19,33-13.19,33"/><path class="cls-2" d="M82.44,161.47v-1.13c0-10.08,14.6-39.56,16.26-42.88,4.48-9,24.55-34.59,38.15-39.92,5.63-2.2,16.52-3.34,27.72-2.9,12.19.48,21.72,2.59,26.13,5.79,2,1.47,3,3.17,2.9,5C192.94,98,160,111.85,146.31,115.52c-12.94,3.48-17.48,8.65-25.73,18-1.54,1.75-3.21,3.65-5.07,5.71-12,13.15-31.83,21.67-32,21.76ZM159.65,76c-8.84,0-14.27-.54-19.21,1.39-13.28,5.2-32.95,30.37-37.35,39.18-1.59,3.18-15,30.32-16,41,4.31-2,17.22-8.24,27.34-19.37,1.87-2,3.53-3.94,5.06-5.69,8.44-9.61,13.09-14.9,26.47-18.5a139,139,0,0,0,28.81-11.91c11-6.12,17.12-12.07,17.37-16.77.08-1.33-.69-2.59-2.28-3.74C184.62,77.88,171.8,76,159.65,76Z"/><path class="cls-3" d="M137.12,78.24c4.8-1.8,27-19.17,42.55-21"/><path class="cls-4" d="M89.25,259.91a29.55,29.55,0,0,0-3.1,2.74c1.09,1.19.55,3.93.55,3.93s-12.61,2.74-13,2.92l-.14.55h-.13l.06.23-.06.23h.13l.14.54c.37.19,13,2.93,13,2.93s.54,2.74-.55,3.93a29.55,29.55,0,0,0,3.1,2.74,16.18,16.18,0,0,0,2.38-8.32v-4.11A16.16,16.16,0,0,0,89.25,259.91Z"/><path class="cls-2" d="M283.75,270.85a341.37,341.37,0,0,1,5-62.56C298.33,151.72,323,115,338.81,95.87c-19.62,2.31-155.36,22-248.79,78.58-1.41,1.61-24.28,29.05-25.91,96.11l-2-.05c1.69-69.62,26.32-97.3,26.57-97.55l.18-.15C190,111.57,335.19,96.21,336.64,96.06l2.49-.25-1.63,1.9c-15.9,18.54-36.94,52.83-46.79,110.87a339.47,339.47,0,0,0-5,62.19Z"/><line class="cls-3" x1="314.03" y1="161.08" x2="293.24" y2="203.5"/><path class="cls-2" d="M298.06,177.33l-.44-.17c-.56-.28-.56-.28,4.55-14.52l.72-2c.59-1.65,1.37-2.64,2.33-2.94a2,2,0,0,1,1.19,0l8-15.72.89.45-8.47,16.66-.48-.34a1.1,1.1,0,0,0-.85-.09c-.43.15-1.08.67-1.67,2.32l-.72,2c-.86,2.41-2.26,6.31-3.32,9.35,1.68-3,3.89-7,5.32-9.57l.13-.24.28,0c2.33-.15,8.51-1.1,9.12-3.72.08-.34.32-1.4,6-12.86,8.61-17.39,23.72-46.61,23.87-46.91l5.86,1.88c-.15.29-20.23,28.09-28.84,45.47-4.65,9.39-5.78,12.06-5.92,12.65-.81,3.54-8.2,4.34-9.75,4.47-1,1.81-7,12.7-7.56,13.48Z"/><line class="cls-3" x1="315.13" y1="142.75" x2="321.15" y2="145.49"/><path class="cls-2" d="M325.37,270.91c-1-51.13,17.25-114.27,19.61-119,1.77-3.55-.51-9.11-.53-9.17l-.17-.39,13.54-30.58,0-.14.32-.42c1.21-1.56,18.3-2.35,50.77-2.35,49.92,0,271.27.49,273.5.5l119-.5,108.92.33-4.92.67-104.45-.28-119,.5c-2.23,0-223.14.78-273.06.78-40.9,0-48,1.34-49.22,1.7l-13.2,29.82c.55,1.5,2.2,6.65.31,10.43-2.23,4.47-20.37,68.25-19.39,118Z"/><path class="cls-5" d="M968.7,146.22s-4-23.33-27.33-29.33S757.37,78.22,648,79.56s-271.34,6-271.34,6-16,3.33-26,14.66"/><path class="cls-3" d="M382,82.89s5.33-1.33,15.33-4,22-19.82,22-19.82"/><polyline class="cls-1" points="422.04 64.22 452.04 62.89 454.12 59.07"/><polygon class="cls-2" points="422.06 64.72 422.01 63.72 451.73 62.4 453.32 58.5 455.52 58.03 452.34 63.38 422.06 64.72"/><polygon class="cls-2" points="412.52 79.13 417 74.56 426.7 63.54 427.75 63.89 412.52 79.13"/><path class="cls-2" d="M435.2,78.22h-1c0-.14.12-13.81,9.8-14.5l1.76-.1C437,64.25,435.2,78.09,435.2,78.22Z"/><line class="cls-6" x1="640.48" y1="54.87" x2="646.04" y2="70.89"/><path class="cls-3" d="M577.14,62.27s-1.78-1.78,3.29-1.92,40.24.27,40.24.27,4.79,1.23,5.33,3.15c-.13.14-12.45.69-12.45.69l-2-2.06Z"/><path class="cls-3" d="M817.85,62.27s-1.78-1.78,3.28-1.92,40.24.27,40.24.27,4.79,1.23,5.34,3.15c-.14.14-12.46.69-12.46.69l-2-2.06Z"/><path class="cls-2" d="M663.85,109.27c-13.25-19-23.73-24.77-28.34-27.69l-1.28-.82.28-.41,1.27.81c4.63,2.93,15.05,8.84,28.36,28Z"/><path class="cls-2" d="M688.64,109.55c-5.58-16.09-21-30.32-21.12-30.49l.36-.35c.16.17,15.21,14.22,20.83,30.42Z"/><path class="cls-2" d="M1067,274.9l-2,0c.68-55.73-12.75-84.93-24.52-104.14-12.26-20-54.12-22.83-54.55-22.85L774.64,135.22c-2.25-.14-275.71-18.33-282.27-18.33l50.33,2.33c6.63,0,222.86,13.43,232.07,14L986.1,145.89c1.76.11,43.33,2.94,56.12,23.81C1054.14,189.14,1067.72,218.66,1067,274.9Z"/><path class="cls-2" d="M1138.37,278.28c0-.79-4.94-79.64-29.88-124.91-14.14-25.69-22.27-30.45-26.18-32.74a7.84,7.84,0,0,1-2.41-1.81l.52-.25a6.69,6.69,0,0,0,1.82,1.29c2.21,1.29,6.82,2.41,11.91,8.27-2-3.3-12-19.36-20.7-25.77-6-4.42-24.74-10.67-52.66-17.59l-1-.24,0-.47,1,.24c28.57,7.08,47.49,11.81,53.82,16.45,8.88,6.51,18.57,21.94,21,26a10.1,10.1,0,0,1,7.08-1.7c3.79.59,7.21,3.51,10.17,8.68,12.2,21.35,26.87,63.75,27.46,144.48Zm-43-148.7c4,4.88,8.94,12,14.88,22.83,15.93,28.93,23.75,71.35,27.35,98.77-3.24-63-15.78-97.83-26.43-116.46-2.63-4.6-5.56-7.19-8.71-7.69a8.39,8.39,0,0,0-6.41,1.93Z"/><path class="cls-2" d="M1015.47,128.64c-2.11,0-3.38-.08-3.5-.09-61.9-1.31-421-7.93-424.62-8l-31-1.67c3.62.07,393.74,6.35,455.69,7.67.33,0,29.11,1.78,45.93-13C1074.46,94,1074.45,93.77,1074.38,91c0-.24,0-.49,0-.78,0-3.21-3.9-4.36-3.94-4.37l-2.26-.64,2-1.19a6.63,6.63,0,0,1,5-.21c3.37,1,8.6,4.75,14.35,16.64,9.75,20.14,15.71,25.64,15.77,25.69l.07.39c-.25-.22-7.22-5.43-17.2-26-5.38-11.13-10.5-13.77-13.47-14.73-.25-.08-.49-.14-.71-.19a5.84,5.84,0,0,1,2.31,4.65c0,.27,0,.51,0,.73.09,3.55.1,3.76-16.91,23.92l-.1.1c-9.14,8.08-21.55,11.34-30.35,12.66A93.3,93.3,0,0,1,1015.47,128.64Z"/><path class="cls-6" d="M853.37,51.56c2,0,26,4,46.67,19.33"/><path class="cls-3" d="M351.13,271.91s2.08-40.91,3.21-52.41c5.46-54.48,21.87-73.71,29-84.83s24.51-14.33,25.83-14.33,1.5-4,.37-4.9-2.64.94-10.37,2.83a68.62,68.62,0,0,1-16,1.69s.19,4.15-7.35,17.54S353.78,166.13,349.62,218c-2.82,35.25-3.39,53.54-3.39,53.54"/><rect class="cls-3" x="452.04" y="232.89" width="2.67" height="40"/><line class="cls-3" x1="447.37" y1="245.89" x2="452.04" y2="247.22"/><line class="cls-3" x1="447.39" y1="241.42" x2="452.21" y2="242.65"/><line class="cls-3" x1="447.5" y1="248.6" x2="451.94" y2="249.02"/><line class="cls-3" x1="447.54" y1="253.19" x2="451.9" y2="254.51"/><path class="cls-3" d="M468.54,245.22s-1.67.5,24,1.5,114.83,3.17,114.83,3.17,9-.83,10.17,4.33.66,18.34.66,18.34"/><path class="cls-3" d="M468.7,249.06l139.34,3s4.66-.17,4.66,4-.16,16.83-.16,16.83"/><path class="cls-3" d="M612.54,250.06c.5,0,29.5-1.5,31.66,8.5.17,8,.34,14.5.34,14.5"/><path class="cls-3" d="M635.87,272.56c.17-1.67.17-16.67.17-16.67s1.66-3.17,3.5-.83,1.66,17.66,1.66,17.66"/><path class="cls-3" d="M635.54,261.56s3.66-1.34,3.66,4.16-2.83,3.84-2.83,3.84"/><path class="cls-2" d="M677.93,189.57l-1-.25-1-.14c.11-1.15-.16-23.21-.37-37.76,0-.57-1-14.86-17.72-16.91l-1.79-.22c-43.21-5.4-49.32-2.68-49.94-1.26-1.8,4.58-1.14,9.25.54,11.08s7.43,7.14,8.1,7.75a8.74,8.74,0,0,0,4,.69h.85c3.76,0,11.57,0,17.49,1.65,4.4,1.26,16.93,5.9,18.37,9.73,1.16,3.1-3.09,6.57-1.1,6.87l-.46-.46a12,12,0,0,0-.31-5.71c-.81-2.15-10.21-6.55-17-8.51-5.65-1.61-13.27-1.59-16.93-1.57h-.86c-3.61,0-5.08-1-5.23-1.08l-.1-.07c-.25-.24-6.31-5.78-8.29-7.94-2.12-2.31-3.11-7.59-.9-13.2,1.25-2.87,8.28-5.42,52,.05l1.78.22c18.41,2.25,19.47,18.66,19.48,18.82C677.85,168.42,678.1,188.87,677.93,189.57Z"/><path class="cls-2" d="M503.21,191.83h-2l0-24.2c.15-.64,3.79-15.69,5.76-20.87.17-.45.34-.93.52-1.42,1.89-5.28,4.48-12.5,15.87-13.71,11.69-1.24,49-3.91,49.4-3.94h.13c.27,0,6.74.4,10.66,2.83,6.21,3.84,11,6.41,13.17,7,3,.89,7.71,2.33,7.71,2.33l-.59,1.91c.83-1.59-4.64-1.43-7.68-2.32-3.19-.94-9.93-5-13.66-7.27-3.31-2-9-2.48-9.66-2.53-1.81.13-37.85,2.72-49.27,3.93-10.14,1.07-12.39,7.35-14.2,12.4-.18.5-.35,1-.53,1.45-1.83,4.83-5.31,19.08-5.66,20.51Z"/><line class="cls-3" x1="510.71" y1="146.91" x2="607.2" y2="151.76"/><line class="cls-3" x1="507.58" y1="146.76" x2="510.71" y2="146.91"/><line class="cls-3" x1="607.03" y1="188.07" x2="607.2" y2="151.76"/><line class="cls-3" x1="580.91" y1="150.51" x2="580.91" y2="188.07"/><path class="cls-3" d="M553.19,149.26c-.54.18-9,8.23-10.38,12s-2.32,17.35-2.32,20.75.36,7.87.36,7.87"/><polyline class="cls-3" points="617.22 153.37 615.43 155.7 614.54 188.25"/><path class="cls-3" d="M640.47,189.74V159.1l1.25-2.33c-2.32-2.32-5.72-3.58-6.61-8.94s-1.26-10.38.89-11.09,10-1.43,15.92,2.15,7.51,8.22,7.87,10.91.89,16.45.89,16.45"/><path class="cls-3" d="M636.9,155.16c-1.26-1.61-6.44-4.65-6.26-10.19s1.25-13.42,5.54-13.6"/><path class="cls-3" d="M507.76,145.32c.35-.71-.18-11.8,10-13.59s59.74-5.54,59.74-5.54,25.22-.36,27.19.35.89-.18,2,.72,6.08.71,6.08.71l2.15,1.79"/><line class="cls-3" x1="594.15" y1="137.28" x2="604.34" y2="137.28"/><path class="cls-2" d="M604.76,139.52l-.83-.55a5.34,5.34,0,0,1,3.58-2.55c.26,0,18.33.89,20.26.89l-1.07.25c-2,0-18.42-.11-19.16-.14A4.47,4.47,0,0,0,604.76,139.52Z"/><path class="cls-3" d="M589.14,134.77c1.61-1.25,3-6.26,7.87-6.26s15.74-.54,15.74-.54"/><path class="cls-7" d="M647.35,190.38c-.05-.67-.08-1.36-.08-2,0-5.72,1.8-10.75,4.53-13.73"/><line class="cls-7" x1="650.31" y1="176.27" x2="650.31" y2="190.22"/><path class="cls-7" d="M664.08,172.87c.72-.18,7.51-1.61,11.09,1.79"/><path class="cls-7" d="M664.08,170.36c.72-.17,7.51-1.6,11.09,1.79"/><path class="cls-2" d="M617.81,247.07c-10.2,0-12.78-1.52-13.49-3.14-2.22-5.64-1.23-10.92.89-13.24,2-2.15,8-7.69,8.29-7.93l.1-.08c.15-.11,1.62-1.08,5.23-1.08h.86c3.66,0,11.28,0,16.93-1.58,6.84-1.95,16.24-6.35,17-8.51a11.91,11.91,0,0,0,.31-5.7l.21-.24c-2.1.54,2.51,3.55,1.35,6.64-1.44,3.84-14,8.48-18.37,9.74-5.92,1.69-13.74,1.66-17.49,1.65h-.85a8.87,8.87,0,0,0-4.05.7c-.69.64-6.29,5.78-8.09,7.74s-2.34,6.5-.52,11.13c.6,1.38,6.71,4.09,49.91-1.3l1.8-.23c16.76-2,17.72-16.79,17.72-16.94.21-14.51.48-36.57.37-37.72l.68-.07,1.28-.32c.17.7-.08,21.14-.33,38.18,0,.2-1.07,16.61-19.48,18.86l-1.79.22C637.52,246.2,625.5,247.07,617.81,247.07Z"/><path class="cls-2" d="M572.85,248.47h-.06c-.37,0-37.71-2.69-49.4-3.93-11.39-1.21-14-8.44-15.87-13.72-.18-.48-.35-1-.52-1.41-2-5.19-5.61-20.23-5.76-20.87l0-.23v-24h2v23.85c.35,1.43,3.83,15.67,5.66,20.51.18.46.35.95.53,1.45,1.81,5,4.06,11.32,14.2,12.4,11.42,1.21,47.46,3.8,49.27,3.92.64,0,6.35-.48,9.66-2.53,3.73-2.31,10.47-6.32,13.66-7.26,3-.89,7.85-.45,7.85-.45l.42,0s-4.66,1.43-7.71,2.33c-2.16.64-7,3.2-13.17,7-3.92,2.44-10.39,2.82-10.66,2.84Z"/><line class="cls-3" x1="510.73" y1="229.24" x2="607.2" y2="224.39"/><line class="cls-3" x1="507.58" y1="229.4" x2="510.73" y2="229.24"/><line class="cls-3" x1="607.03" y1="188.08" x2="607.2" y2="224.39"/><line class="cls-3" x1="580.91" y1="225.65" x2="580.91" y2="188.08"/><path class="cls-3" d="M553.19,226.9c-.54-.18-9-8.23-10.38-12s-2.32-17.35-2.32-20.74.36-7.87.36-7.87"/><polyline class="cls-3" points="617.22 222.78 615.43 220.46 614.54 187.91"/><path class="cls-3" d="M640.47,189v28.08l1.25,2.33c-2.32,2.32-5.72,3.57-6.61,8.94s-1.26,10.37.89,11.09,10,1.43,15.92-2.15,7.51-8.23,7.87-10.91.89-16.45.89-16.45"/><path class="cls-3" d="M636.9,221c-1.26,1.6-6.44,4.65-6.26,10.19s1.25,13.41,5.54,13.59"/><path class="cls-3" d="M507.76,230.83c.35.72-.18,11.81,10,13.6S577.51,250,577.51,250s25.22.36,27.19-.36.89.18,2-.71,6.08-.72,6.08-.72l2.15-1.79"/><line class="cls-3" x1="594.15" y1="238.88" x2="604.34" y2="238.88"/><path class="cls-2" d="M607.59,239.74a5.26,5.26,0,0,1-3.66-2.55l.83-.55a4.39,4.39,0,0,0,2.85,2.1c.67,0,17.8.48,19.76.48l.4-.38C625.84,238.84,607.77,239.73,607.59,239.74Z"/><path class="cls-7" d="M647.35,185.78c-.05.67-.08,1.35-.08,2.05,0,5.71,1.8,10.75,4.53,13.73"/><line class="cls-7" x1="650.31" y1="199.89" x2="650.31" y2="185.94"/><path class="cls-7" d="M664.08,203.29c.72.18,7.51,1.61,11.09-1.79"/><path class="cls-7" d="M664.08,205.79c.72.18,7.51,1.61,11.09-1.79"/><path class="cls-2" d="M667.44,213.73h-.14c-4.82,0-16.16-6.12-16.16-11.69V174.12c0-3.37,4-6.45,6.39-8,3.52-2.26,7.35-3.71,9.77-3.71l.27,0,1.84.34c5.24.09,8,5.2,8,10.26v30.06c0,5-2.74,10.17-8,10.26Zm-.26-48.3c-4,.11-13,5.64-13,8.69V202c0,3,9,8.57,13,8.69l2.09-.36c3.36,0,5.12-3.65,5.12-7.26V173.05c0-3.61-1.76-7.27-5.12-7.27l-.27,0Z"/><path class="cls-2" d="M889.22,198.26l-1.94-.49,1,.25-1-.15c.11-1.15-.16-23.21-.37-37.76,0-.57-1-14.86-17.72-16.91-10.14-1.24-50.95,1.92-53,6.55-.36.93-.55,1.49-.64,1.83A3.65,3.65,0,0,1,818,152.8c1.8,2,7.43,7.14,8.1,7.75a8.69,8.69,0,0,0,4,.69H831c3.75,0,11.56,0,17.49,1.65,4.4,1.26,16.93,5.9,18.37,9.73a13.88,13.88,0,0,1,.4,6.82l-2-.41a12,12,0,0,0-.32-5.7c-.81-2.16-10.2-6.56-17-8.52-5.65-1.61-13.27-1.58-16.93-1.57h-.86c-3.62,0-5.08-1-5.24-1.08l-.09-.07c-.26-.24-6.31-5.78-8.29-7.93a1.78,1.78,0,0,0-1.38-.62,1.65,1.65,0,0,1-1.44-.7c-.44-.71-.21-1.63.67-3.86,2.94-6.73,46.77-8.78,55.06-7.76,18.41,2.25,19.47,18.66,19.48,18.83C889.13,177.11,889.39,197.56,889.22,198.26Z"/><path class="cls-3" d="M794.34,140.06c3.76,2.33,10.38,6.27,13.42,7.16s7.69,2.32,7.69,2.32"/><line class="cls-3" x1="718.86" y1="155.45" x2="818.49" y2="160.46"/><line class="cls-3" x1="818.31" y1="196.76" x2="818.49" y2="160.46"/><line class="cls-3" x1="792.2" y1="159.2" x2="792.2" y2="196.76"/><path class="cls-3" d="M764.47,158c-.53.18-8.94,8.23-10.37,12s-2.33,17.35-2.33,20.75.36,7.87.36,7.87"/><polyline class="cls-3" points="828.51 162.06 826.72 164.39 825.82 196.94"/><path class="cls-3" d="M851.76,228.25V167.79l1.25-2.33c-2.32-2.32-5.72-3.57-6.62-8.94s-1.25-10.37.9-11.09,10-1.43,15.92,2.15,7.51,8.22,7.87,10.91.89,16.45.89,16.45"/><path class="cls-7" d="M875.37,181.56c.71-.18,7.51-1.61,11.09,1.79"/><path class="cls-7" d="M875.37,179.06c.71-.18,7.51-1.61,11.09,1.79"/><path class="cls-3" d="M887.16,249.58c-8.77,1.07-68.13,8.37-70.64,2.64-2-5-1.25-10,.72-12.16s8.23-7.87,8.23-7.87,1.25-.89,4.65-.89,11.8.18,18.06-1.61,16.64-6.26,17.71-9.13a13,13,0,0,0,.36-6.26"/><path class="cls-2" d="M889.37,273.68h-2V254.89l-2-5.4.23-.41c1.87-3.22,1.55-12.32,1.27-15.55v-.1c.21-14.55.48-36.61.37-37.76l.68-.07,1.28-.32c.17.7-.09,21.11-.33,38.13.08,1,.91,11.64-1.31,16.24l1.79,4.88Z"/><path class="cls-2" d="M818.57,255.05h-79a1.07,1.07,0,0,1-.52-.14l-26.34-15.8a1,1,0,0,1-.45-1.11,1,1,0,0,1,.92-.75L818,233.4c.54,0,1.43-.92,1.46-.36a1,1,0,0,1-1,1l-105,5,23.28,14,81.37,1.77c.55,0,1.34-1.32,1.34-.77A1,1,0,0,1,818.57,255.05Z"/><line class="cls-3" x1="818.31" y1="196.78" x2="818.49" y2="233.09"/><line class="cls-3" x1="792.2" y1="234.34" x2="792.2" y2="196.78"/><path class="cls-3" d="M764.47,235.59c-.53-.18-8.94-8.23-10.37-12s-2.33-17.35-2.33-20.75.36-7.87.36-7.87"/><polyline class="cls-3" points="828.51 231.48 826.72 229.15 825.82 196.6"/><path class="cls-3" d="M848.18,229.69c-1.25,1.61-6.44,4.65-6.26,10.19s1.25,13.42,5.55,13.6"/><path class="cls-7" d="M875.37,212c.71.18,7.51,1.61,11.09-1.79"/><path class="cls-7" d="M875.37,214.48c.71.18,7.51,1.61,11.09-1.78"/><path class="cls-2" d="M878.72,222.42h-.13c-4.82,0-14.69-5.63-14.69-11.21V183.29c0-3.37,2.53-6.92,4.92-8.46,3.51-2.26,7.34-3.71,9.77-3.71l.27,0,1.84.34c5.23.09,8,5.2,8,10.26V211.8c0,5.06-2.74,10.17-8,10.26Zm-.26-48.3c-4,.11-13,5.65-13,8.69v27.92c0,3.05,9,8.58,13,8.69l2.1-.36c3.36,0,5.11-3.65,5.11-7.26V181.74c0-3.61-1.75-7.26-5.11-7.26l-.27,0Z"/><line class="cls-3" x1="871.91" y1="251.42" x2="871.91" y2="271.83"/><line class="cls-3" x1="827.79" y1="254.05" x2="827.79" y2="271.83"/><line class="cls-3" x1="817.25" y1="272.49" x2="817.25" y2="254.05"/><path class="cls-2" d="M863.06,404c-14.86,0-46.24-2.35-48.7-8-.89-2.26-1.12-3.18-.68-3.89a1.65,1.65,0,0,1,1.44-.7,1.8,1.8,0,0,0,1.38-.61c2-2.16,8-7.7,8.29-7.94l.09-.07c.16-.11,1.62-1.08,5.24-1.08H831c3.67,0,11.28,0,16.93-1.57,6.84-2,16.23-6.36,17-8.52a12,12,0,0,0,.32-5.7l2-.41a13.88,13.88,0,0,1-.4,6.82c-1.44,3.83-14,8.47-18.37,9.73-5.93,1.69-13.74,1.66-17.49,1.65h-.85a9,9,0,0,0-4,.69c-.69.64-6.29,5.78-8.09,7.75a3.65,3.65,0,0,1-2.43,1.22,17.53,17.53,0,0,0,.66,1.86c2,4.6,42.83,7.76,53,6.52,16.75-2.06,17.71-16.8,17.72-16.95.21-14.51.48-36.57.37-37.72l.68-.07,1.28-.32c.17.7-.09,21.15-.33,38.18,0,.2-1.07,16.61-19.48,18.86A59.77,59.77,0,0,1,863.06,404Z"/><path class="cls-3" d="M794.56,406.22c3.75-2.32,10.37-6.26,13.41-7.15s7.69-2.33,7.69-2.33"/><path class="cls-2" d="M719.22,390.18a1,1,0,0,1-.7-.29c-4.08-4.05-5.83-19.6-6-21.36V344.46a1,1,0,0,1,2,0v23.91c.49,4.63,2.42,17.11,5.43,20.1a1,1,0,0,1,0,1.41A1,1,0,0,1,719.22,390.18Z"/><line class="cls-3" x1="718.86" y1="389.53" x2="818.49" y2="384.53"/><line class="cls-3" x1="818.31" y1="348.22" x2="818.49" y2="384.53"/><line class="cls-3" x1="792.2" y1="385.78" x2="792.2" y2="348.22"/><path class="cls-3" d="M764.47,387c-.53-.18-8.94-8.23-10.37-12s-2.33-17.35-2.33-20.75.36-7.87.36-7.87"/><polyline class="cls-3" points="828.51 382.92 826.72 380.59 825.82 348.04"/><path class="cls-3" d="M851.76,316.73v60.46l1.25,2.33c-2.32,2.32-5.72,3.57-6.62,8.94s-1.25,10.37.9,11.09,10,1.43,15.92-2.15,7.51-8.22,7.87-10.91S872,370,872,370"/><path class="cls-7" d="M875.37,363.42c.71.18,7.51,1.61,11.09-1.79"/><path class="cls-7" d="M875.37,365.92c.71.18,7.51,1.61,11.09-1.78"/><path class="cls-3" d="M887.16,295.4c-8.77-1.07-68.13-8.37-70.64-2.64-2,5-1.25,10,.72,12.16s8.23,7.87,8.23,7.87,1.25.89,4.65.89,11.8-.18,18.06,1.61,16.64,6.26,17.71,9.13a13,13,0,0,1,.36,6.26"/><path class="cls-2" d="M889.22,349.7l-1.94-.49,1,.25-1-.15c.11-1.15-.16-23.21-.37-37.76v-.1c.28-3.23.59-12.33-1.27-15.55l-.23-.4,2-5.41V273.15h2v17.3l-1.79,4.88c2.22,4.6,1.39,15.29,1.31,16.24C889.13,328.59,889.39,349,889.22,349.7Z"/><path class="cls-2" d="M785.35,406.23c-.43,0-43.32,2.21-49.44,1.69l-2.36-.2A43.16,43.16,0,0,1,722.78,406c-2.48-.77-5.72-15.39-7.3-28.5l-2,.24c.8,6.7,3.8,28.66,8.7,30.17a45.31,45.31,0,0,0,11.19,1.85l2.35.19c.69.06,1.83.09,3.31.09,11.74,0,44.83-1.69,46.38-1.77A44,44,0,0,0,797.74,406l-.71-1.88A42.54,42.54,0,0,1,785.35,406.23Z"/><path class="cls-2" d="M712.5,352h2l.37-79.47h0L714.5,193V176.61c.16-1.48.46-3.75.9-6.25h.08c.06-.52.13-1,.2-1.55.94-5,2.39-10.46,4.25-12.31l-1.41-1.42a7.42,7.42,0,0,0-.73.88c1.56-7.64,3.43-13.62,5-14.1,3.92-1.21,6.21-1.39,10.77-1.76l2.36-.2c6.12-.52,49,1.67,49.46,1.69A42.42,42.42,0,0,1,797,143.68l.71-1.87a44,44,0,0,0-12.29-2.21c-1.77-.09-43.46-2.22-49.71-1.68l-2.35.19A44.84,44.84,0,0,0,722.2,140c-4.5,1.38-7.4,20-8.46,28.25-.76,4-1.15,7.46-1.24,8.24V193h0v7.5h0l.34,72Z"/><path class="cls-2" d="M818.49,312.89s-.7-1.18-.72-1.18l-104.61-4a1,1,0,0,1-.92-.75,1,1,0,0,1,.45-1.11L739,290.07a1.07,1.07,0,0,1,.52-.14h79a1,1,0,0,1,1,1c0,.55-.79-.84-1.34-.84l-81.37,1.5-23.28,14,105,5.34a1,1,0,0,1,1,1A1,1,0,0,1,818.49,312.89Z"/><line class="cls-3" x1="818.31" y1="348.2" x2="818.49" y2="311.9"/><line class="cls-3" x1="792.2" y1="310.64" x2="792.2" y2="348.2"/><path class="cls-3" d="M764.47,309.39c-.53.18-8.94,8.23-10.37,12s-2.33,17.35-2.33,20.75.36,7.87.36,7.87"/><polyline class="cls-3" points="828.51 313.5 826.72 315.83 825.82 348.38"/><path class="cls-3" d="M848.18,315.29c-1.25-1.61-6.44-4.65-6.26-10.19s1.25-13.42,5.55-13.6"/><path class="cls-7" d="M875.37,333c.71-.18,7.51-1.61,11.09,1.79"/><path class="cls-7" d="M875.37,330.5c.71-.18,7.51-1.61,11.09,1.79"/><path class="cls-2" d="M878.72,373.86h-.13c-4.82,0-14.69-5.63-14.69-11.21V334.73c0-3.37,2.53-6.92,4.92-8.46,3.51-2.25,7.34-3.71,9.77-3.71l.27,0,1.84.34c5.23.09,8,5.2,8,10.26v30.06c0,5.06-2.74,10.17-8,10.26Zm-.26-48.3c-4,.11-13,5.64-13,8.69v27.92c0,3.05,9,8.58,13,8.69l2.1-.36c3.36,0,5.11-3.65,5.11-7.26V333.18c0-3.61-1.75-7.26-5.11-7.26l-.27,0Z"/><line class="cls-3" x1="871.91" y1="293.56" x2="871.91" y2="271.7"/><line class="cls-3" x1="827.79" y1="290.93" x2="827.79" y2="271.36"/><line class="cls-3" x1="817.25" y1="272.49" x2="817.25" y2="290.93"/><line class="cls-3" x1="794.56" y1="141.37" x2="775.32" y2="122.34"/><polygon class="cls-1" points="313.89 490.01 168.28 490.61 158.09 484.02 316.29 486.42 313.89 490.01"/><path class="cls-2" d="M168.14,489.12l-11.78-5.62,160.86,2.43-.58,1.83-2.74,2.76Z"/><polygon class="cls-1" points="1011.66 51.81 862.28 43.68 852.1 50.27 1014.06 55.41 1011.66 51.81"/><path class="cls-2" d="M850.36,50.79l6.81-2.2,5.11-1.38,149.65,6.13,3.05,2.55Z"/><polygon class="cls-1" points="1004.28 490.88 862.28 496.61 852.1 490.02 1006.67 487.29 1004.28 490.88"/><path class="cls-2" d="M862.8,493.81l-12.44-4.31,157.24-2.7.41.19-3.73,3.09Z"/><path class="cls-2" d="M462.25,521.59c-13.74,0-20.5-6.57-20.83-6.9l-.1-.12-22.47-31.34H366.71c-1,.17-11.24,1.88-20.27,3.57-5.47,1-12.77.73-19.22.46-4.61-.19-9-.36-10.65.12-5.49,1.57-153.78-1.56-168.79-3.56-18.13-2.42-32.94-18.22-33.56-18.89l-.11-.15c-.33-.5-32.54-51.25-49.74-81.49C48.23,361.06,43.16,274.78,43,271.12v-.89c.21-3.72,5.28-90,21.42-112.23,17.2-30.24,49.41-81,49.74-81.49l.11-.15c.62-.67,15.43-16.47,33.56-18.88,15-2,163.3-5.14,168.79-3.57,1.69.48,6,.31,10.65.12,6.45-.27,13.75-.57,19.22.46,9,1.69,19.26,3.41,20.27,3.58h52.14L441.42,26.6c.39-.38,9.57-9.32,28.44-6.27l.84.13v.85c0,2.33-11.42,28.49-15,36.72l184.79-4.16c1.61,0,157.65,1.8,159.42,1.8,1.29,0,30-2.86,49-4.79l14.45-1.2h0l133.63,3c.89.08,20.08,1.85,27.33,4.87,2.32,1,5.44,2.67,9.05,4.64,7.77,4.24,18.42,10.05,29.79,13.3l3.32.94c15.61,4.39,29.08,8.18,42.15,25.79,13.66,18.41,48.34,84.55,44.89,168.48,3.45,83.84-31.23,150-44.89,168.39-13.07,17.61-26.54,21.4-42.15,25.79l-3.32.94c-11.37,3.25-22,9.06-29.79,13.3-3.61,2-6.73,3.67-9.05,4.64-7.25,3-26.44,4.79-27.26,4.86l-133.75,3h-.05l-14.38-1.2c-19-1.92-47.77-4.79-49.06-4.79-1.77,0-157.81,1.78-159.38,1.8l-184.83-4.16c3.62,8.24,15,34.4,15,36.72v.85l-.84.13A46.77,46.77,0,0,1,462.25,521.59Zm-17.36-8.26c.73.67,7.19,8.1,23.6,5.82-1.43-4.56-9.85-24.18-15.29-36.52l-.63-1.44,187.93,4.23c6.4-.07,157.59-1.8,159.37-1.8s47.31,4.61,49.24,4.8l14.31,1.19,133.58-3c.13,0,19.63-1.82,26.6-4.72,2.22-.92,5.3-2.6,8.86-4.54,7.85-4.29,18.61-10.16,30.2-13.47,1.12-.32,2.23-.64,3.33-.94,15.25-4.29,28.42-8,41.09-25.06,13.53-18.25,47.92-83.85,44.5-167.2,3.42-83.44-31-149-44.5-167.28-12.67-17.07-25.84-20.77-41.09-25.06l-3.33-.94c-11.59-3.32-22.35-9.19-30.2-13.47-3.56-1.95-6.64-3.62-8.86-4.55-7-2.9-26.47-4.7-26.67-4.72l-133.51-3-14.33,1.19c-1.91.2-47.39,4.8-49.22,4.8s-153-1.73-159.4-1.8L452.57,60.1l.63-1.44c5.43-12.32,13.84-31.91,15.28-36.52-16.39-2.28-22.85,5.14-23.59,5.83l-25,32.1-53.41,0c-.1,0-10.9-1.82-20.39-3.6-5.24-1-12.74-.67-18.77-.42-5.18.21-9.28.38-11.28-.2-3.87-.94-149.23,1.13-168,3.63-16.86,2.25-31.25,17.1-32.3,18.2C114.28,80,82.93,129.41,66.08,159l-.06.1c-15.82,21.68-19.79,110.13-19.84,111v.77c0,.84,4,89.56,19.84,111.24l.06.1c16.85,29.63,48.2,79.06,49.66,81.37,1.05,1.1,15.46,16,32.3,18.2,18.75,2.5,164.11,4.57,168,3.63,2-.57,6.1-.41,11.28-.19,6,.24,13.53.55,18.77-.43,9.49-1.78,20.29-3.58,20.39-3.6h53.41Z"/><path class="cls-3" d="M111.35,460.05S91,440.28,78.4,415.71s-13.19-33-13.19-33"/><path class="cls-2" d="M159.79,466.74c-9.44,0-18.11-1.1-22.94-3-13.6-5.32-33.67-31-38.15-39.91C97,420.51,82.44,391,82.44,381v-1.13l1,.44c.2.09,20.07,8.61,32,21.76,1.86,2.06,3.53,4,5.07,5.71,8.25,9.39,12.79,14.56,25.73,18,13.64,3.68,46.63,17.54,47.29,30.05.1,1.88-.87,3.57-2.9,5-4.41,3.2-13.94,5.31-26.13,5.79C163,466.71,161.37,466.74,159.79,466.74ZM86.3,383c1,10.72,14.45,37.86,16,41,4.41,8.81,21.79,33.15,35.06,38.34,11.73,4.59,43.45,3.8,52.43-2.71,1.59-1.14,2.36-2.4,2.28-3.74-.25-4.7-6.41-10.65-17.37-16.76a138.62,138.62,0,0,0-28.81-11.92c-13.38-3.6-18-8.89-26.47-18.5-1.53-1.75-3.19-3.64-5.06-5.69C104.27,391.89,90.61,385,86.3,383Z"/><path class="cls-3" d="M137.12,463.05c4.8,1.8,27,19.18,42.55,21"/><path class="cls-4" d="M89.25,281.38a29.55,29.55,0,0,1-3.1-2.74c1.09-1.19.55-3.93.55-3.93s-12.61-2.74-13-2.92l-.14-.55h-.13l.06-.23-.06-.22h.13l.14-.54c.37-.19,13-2.93,13-2.93s.54-2.74-.55-3.92c-.19-.1,3.1-2.74,3.1-2.74A16.12,16.12,0,0,1,91.63,269v4.11A16.16,16.16,0,0,1,89.25,281.38Z"/><path class="cls-2" d="M339.13,445.48l-2.49-.25c-1.45-.15-146.69-15.51-247.78-76.75l-.18-.15c-.25-.25-24.88-27.92-26.57-97.55l2,0C65.74,337.8,88.6,365.23,90,366.84c93.43,56.55,229.27,76.27,248.89,78.59-15.86-19.15-40.58-55.86-50.18-112.43a341.37,341.37,0,0,1-5-62.56l2,.08a339.43,339.43,0,0,0,5,62.19c9.85,58,30.89,92.33,46.79,110.87Z"/><line class="cls-3" x1="314.03" y1="380.21" x2="293.24" y2="337.8"/><path class="cls-2" d="M344.51,442.28c-.15-.3-15.26-29.52-23.87-46.91-5.68-11.46-5.92-12.52-6-12.86-.61-2.62-6.79-3.57-9.12-3.72l-.28,0-.13-.24c-1.43-2.58-3.64-6.56-5.32-9.57,1.06,3,2.46,6.94,3.32,9.35l.72,2c.59,1.66,1.24,2.17,1.67,2.32a1,1,0,0,0,.86-.1l.47-.31.26.5,8.21,16.14-.89.45-8-15.72a2,2,0,0,1-1.19,0c-1-.3-1.74-1.29-2.33-2.94l-.72-2c-5.11-14.24-5.11-14.24-4.55-14.52l.4-.2.28.4c.52.78,6.55,11.68,7.56,13.48,1.55.13,8.94.93,9.75,4.47.14.59,1.27,3.26,5.92,12.65,8.61,17.38,29.69,46.67,29.84,47Z"/><line class="cls-3" x1="315.13" y1="398.54" x2="321.15" y2="395.8"/><path class="cls-2" d="M801.37,432.4l-119-.5c-2.23,0-223.58.5-273.5.5-32.47,0-49.56-.79-50.77-2.35l-.3-.38,0-.16-13.55-30.59.17-.4c0-.06,2.29-5.63.53-9.17-2.36-4.7-20.61-67.84-19.61-119l2,0c-1,49.78,17.16,113.57,19.39,118,1.89,3.77.24,8.93-.31,10.42l13.2,29.82c1.18.36,8.32,1.7,49.22,1.7,49.92,0,271.41.82,273.64.81l119,.5,97.85.18,7.55.18Z"/><path class="cls-5" d="M968.7,395.07s-4,23.33-27.33,29.33-184,38.67-293.33,37.34-271.34-6-271.34-6-16-3.34-26-14.67"/><path class="cls-3" d="M382,458.4s5.33,1.34,15.33,4,22,19.83,22,19.83"/><polyline class="cls-1" points="422.04 477.07 452.04 478.4 454.12 482.23"/><polygon class="cls-2" points="453.11 482.44 451.73 478.89 422.01 477.57 422.06 476.57 452.34 477.92 455.65 483.25 453.11 482.44"/><polygon class="cls-2" points="425.24 477.06 417 466.73 417.01 466.46 427.75 477.4 425.24 477.06"/><path class="cls-2" d="M444,477.57c-9.68-.69-9.8-14.36-9.8-14.5h1c0,.13,3.38,14.35,12.13,15Z"/><line class="cls-6" x1="640.48" y1="486.42" x2="646.04" y2="470.4"/><path class="cls-3" d="M577.14,479s-1.78,1.78,3.29,1.91,40.24-.27,40.24-.27,4.79-1.23,5.33-3.15c-.13-.14-12.45-.68-12.45-.68l-2,2.05Z"/><path class="cls-3" d="M817.85,479s-1.78,1.78,3.28,1.91,40.24-.27,40.24-.27,4.79-1.23,5.34-3.15c-.14-.14-12.46-.68-12.46-.68l-2,2.05Z"/><path class="cls-2" d="M634.51,460.94l-.28-.41a29.8,29.8,0,0,1,6.93-3.54c4.4-1.66,6-1.4,22.44-25h0c-16.49,23.7-17.77,23.74-22.27,25.44A29.26,29.26,0,0,0,634.51,460.94Z"/><path class="cls-2" d="M667.88,462.58l-.36-.35a45.58,45.58,0,0,1,4.05-3.58c5.15-4.21,10-6.27,17.14-26.7v.25c-7.13,20.56-11.62,22.58-16.82,26.84A44.8,44.8,0,0,0,667.88,462.58Z"/><path class="cls-2" d="M542.7,422.07l-45.33,1.82c6.56,0,275-17.68,277.27-17.82L986,393.4c.42,0,42.29-2.87,54.54-22.85,11.77-19.21,25.2-48.4,24.52-104.14l2,0c.68,56.24-12.9,85.77-24.82,105.2-12.79,20.87-54.36,23.7-56.12,23.81L774.76,408.07C765.56,408.64,549.33,422.07,542.7,422.07Z"/><path class="cls-2" d="M1020.28,458.71l-4.55.75,1-.25c27.91-6.92,50.67-15.86,56.71-20.28,8.74-6.41,18.71-22.48,20.7-25.77-5.09,5.86-9.74,6.89-12,8.19a6.94,6.94,0,0,0-1.82,1.28l-.47-.16a7.84,7.84,0,0,1,2.41-1.81c3.91-2.29,12-7.05,26.18-32.74,24.94-45.27,29.84-124.12,29.88-124.91l2,.07c-.59,80.73-15.26,123.13-27.46,144.49-3,5.17-6.38,8.08-10.17,8.67a10,10,0,0,1-7.08-1.7c-2.46,4.06-12.15,19.49-21,26-6.33,4.64-24.78,10.84-53.35,17.92Zm75.09-47,.68.62a8.39,8.39,0,0,0,6.41,1.93c3.15-.5,6.08-3.08,8.71-7.69,10.65-18.63,23.19-53.5,26.43-116.46-3.6,27.42-11.42,69.84-27.35,98.78C1104.32,399.65,1099.39,406.83,1095.37,411.71Z"/><path class="cls-2" d="M1072.86,457.85a5.69,5.69,0,0,1-2.66-.58l-2-1.19,2.26-.64c.16-.05,3.94-1.19,3.94-4.37,0-.28,0-.54,0-.78.07-2.77.08-3-16.39-22.52-16.84-14.83-45.6-13.06-45.88-13-62,1.32-421.1,7.94-424.72,8l0-2c3.62-.07,362.72-6.69,424.67-8,1.16-.09,29.9-1.85,47.35,13.58l.1.1c17,20.16,17,20.37,16.91,23.92,0,.22,0,.46,0,.73a5.84,5.84,0,0,1-2.31,4.65,5.83,5.83,0,0,0,.71-.19c3-.95,7.65-4.43,13-15.56,10-20.61,16-26.09,16.24-26.31l1.33,1.49c-.06.05-6,5.55-15.77,25.69-5.75,11.89-11,15.61-14.35,16.64A8.35,8.35,0,0,1,1072.86,457.85Z"/><path class="cls-6" d="M853.37,489.74c2,0,26-4,46.67-19.34"/><path class="cls-3" d="M351.13,269.38s2.08,40.91,3.21,52.41c5.46,54.48,21.87,73.71,29,84.83S407.88,421,409.2,421s1.5,4,.37,4.9-2.64-.94-10.37-2.83a68.62,68.62,0,0,0-16-1.69s.19-4.15-7.35-17.54-22.05-28.63-26.21-80.49c-2.82-35.25-3.39-53.54-3.39-53.54"/><path class="cls-2" d="M469.7,309.74H453.37V231.56H469.7Zm-14.33-2H467.7V233.56H455.37Z"/><rect class="cls-3" x="452.04" y="268.4" width="2.67" height="40"/><line class="cls-3" x1="447.37" y1="295.4" x2="452.04" y2="294.07"/><line class="cls-3" x1="447.39" y1="299.87" x2="452.21" y2="298.64"/><line class="cls-3" x1="447.5" y1="292.69" x2="451.94" y2="292.27"/><line class="cls-3" x1="447.54" y1="288.1" x2="451.9" y2="286.78"/><path class="cls-3" d="M468.54,296.07s-1.67-.5,24-1.5,114.83-3.17,114.83-3.17,9,.84,10.17-4.33.66-18.33.66-18.33"/><path class="cls-3" d="M468.7,292.24l139.34-3s4.66.16,4.66-4-.16-16.84-.16-16.84"/><path class="cls-3" d="M612.54,291.24c.5,0,29.5,1.5,31.66-8.5.17-8,.34-14.5.34-14.5"/><path class="cls-3" d="M635.87,268.74c.17,1.66.17,16.66.17,16.66s1.66,3.17,3.5.84,1.66-17.67,1.66-17.67"/><path class="cls-3" d="M635.54,279.74s3.66,1.33,3.66-4.17-2.83-3.83-2.83-3.83"/><path class="cls-2" d="M617.81,412.2c-10.2,0-12.78-1.52-13.49-3.13-2.22-5.65-1.23-10.93.89-13.24,2-2.16,8-7.7,8.29-7.93l.1-.08c.15-.11,1.62-1.08,5.23-1.08h.86c3.67,0,11.28,0,16.93-1.57,6.84-2,16.24-6.36,17-8.51A12,12,0,0,0,654,371l2-.41a13.88,13.88,0,0,1-.4,6.82c-1.44,3.83-14,8.47-18.37,9.73-5.92,1.69-13.74,1.66-17.49,1.65h-.85a8.72,8.72,0,0,0-4.05.7c-.69.63-6.29,5.77-8.09,7.74s-2.34,6.5-.52,11.12c.6,1.38,6.71,4.1,49.92-1.3l1.79-.22c16.76-2,17.72-16.8,17.72-16.95.21-14.5.48-36.57.37-37.72l.68-.07,1.28-.32c.17.7-.08,21.15-.33,38.18,0,.2-1.07,16.61-19.48,18.86l-1.78.23C637.53,411.34,625.5,412.2,617.81,412.2Z"/><path class="cls-3" d="M510.12,399.76c2,4.09,5.38,8.06,13.38,8.91,11.8,1.25,49.36,3.93,49.36,3.93s6.44-.36,10.2-2.68,10.37-6.26,13.41-7.16,7.69-2.32,7.69-2.32"/><line class="cls-3" x1="512.7" y1="394.54" x2="607.2" y2="389.53"/><line class="cls-3" x1="607.03" y1="353.22" x2="607.2" y2="389.53"/><line class="cls-3" x1="580.91" y1="390.78" x2="580.91" y2="353.22"/><path class="cls-3" d="M553.19,392c-.54-.18-9-8.23-10.38-12s-2.32-17.35-2.32-20.75.36-7.87.36-7.87"/><polyline class="cls-3" points="617.22 387.92 615.43 385.59 614.54 353.04"/><path class="cls-3" d="M640.47,351.55v30.64l1.25,2.33c-2.32,2.32-5.72,3.58-6.61,8.94s-1.26,10.38.89,11.09,10,1.43,15.92-2.14,7.51-8.23,7.87-10.91.89-16.46.89-16.46"/><path class="cls-3" d="M636.9,386.13c-1.26,1.61-6.44,4.65-6.26,10.19s1.25,13.42,5.54,13.6"/><path class="cls-2" d="M590.16,416.2c-5.46,0-10.76-.07-12.66-.09-2.09-.16-49.77-3.79-59.9-5.56-4.94-.87-8.35-4-9.86-9l1.91-.58c1.3,4.32,4.09,6.89,8.3,7.63,10,1.76,59.14,5.49,59.64,5.53,9.52.13,25.29.17,26.77-.3a4.9,4.9,0,0,1,1.45-.37l.22-.18c1.14-.95,4.59-1,6.37-.95l1.86-1.55,1.28,1.54-2.44,2h-.39c-2.42-.09-5,.14-5.4.48-.62.51-.9.75-1.48.64a8,8,0,0,0-.79.25C603.92,416.1,596.91,416.2,590.16,416.2Z"/><line class="cls-3" x1="594.15" y1="404.02" x2="604.34" y2="404.02"/><path class="cls-2" d="M607.57,404.87a5.29,5.29,0,0,1-3.64-2.54l.83-.56a4.43,4.43,0,0,0,2.85,2.11c.13,0,11.48,1,13.43,1l7-.17C626.09,404.72,607.75,404.87,607.57,404.87Z"/><path class="cls-3" d="M589.14,406.52c1.61,1.25,3,6.26,7.87,6.26s15.74.54,15.74.54"/><path class="cls-2" d="M597.1,134.58l4.23-.2,6.39-2-6.18-.59-4.67-.61v.57c0,.56.17,2.3.18,2.38Z"/><path class="cls-2" d="M597.1,406.71l-.05.48c0,.07-.18,1.82-.18,2.37v.57l4.66-.61,6.19-.59-6.27-2Z"/><path class="cls-7" d="M647.35,350.91c-.05.67-.08,1.36-.08,2,0,5.72,1.8,10.76,4.53,13.73"/><line class="cls-7" x1="650.31" y1="365.02" x2="650.31" y2="351.07"/><path class="cls-7" d="M664.08,368.42c.72.18,7.51,1.61,11.09-1.79"/><path class="cls-7" d="M664.08,370.93c.72.18,7.51,1.61,11.09-1.79"/><path class="cls-2" d="M677.93,354.7l-1-.24-1-.14c.11-1.16-.16-23.22-.37-37.77,0-.56-1-14.86-17.72-16.9l-1.79-.23c-43.21-5.39-49.32-2.68-49.94-1.26-1.8,4.59-1.14,9.25.54,11.09s7.43,7.13,8.1,7.74a8.66,8.66,0,0,0,4,.7h.85c3.76,0,11.57,0,17.49,1.65,4.4,1.26,16.93,5.91,18.37,9.74a13.84,13.84,0,0,1,.4,6.81l-2-.41a11.91,11.91,0,0,0-.31-5.7c-.81-2.16-10.21-6.56-17-8.51-5.65-1.62-13.27-1.59-16.93-1.58h-.86c-3.61,0-5.08-1-5.23-1.08l-.1-.08c-.25-.24-6.31-5.78-8.28-7.93-2.13-2.32-3.12-7.59-.91-13.21,1.25-2.86,8.28-5.42,52,.05l1.78.22c18.41,2.25,19.47,18.66,19.48,18.83C677.85,333.56,678.1,354,677.93,354.7Z"/><path class="cls-3" d="M507.27,314.19c.23-.74.46-1.4.67-1.94,2-5.19,3.75-13.24,15.56-14.49s49.36-3.94,49.36-3.94,6.44.36,10.2,2.69,10.37,6.26,13.41,7.15,7.69,2.33,7.69,2.33"/><line class="cls-3" x1="507.58" y1="311.89" x2="607.2" y2="316.9"/><line class="cls-3" x1="607.03" y1="353.21" x2="607.2" y2="316.9"/><line class="cls-3" x1="580.91" y1="315.65" x2="580.91" y2="353.21"/><path class="cls-3" d="M553.19,314.39c-.54.18-9,8.23-10.38,12s-2.32,17.35-2.32,20.75.36,7.87.36,7.87"/><polyline class="cls-3" points="617.22 318.51 615.43 320.83 614.54 353.39"/><path class="cls-3" d="M640.47,352.31V324.23l1.25-2.32c-2.32-2.33-5.72-3.58-6.61-9s-1.26-10.37.89-11.09,10-1.43,15.92,2.15,7.51,8.23,7.87,10.91.89,16.46.89,16.46"/><path class="cls-3" d="M636.9,320.3c-1.26-1.61-6.44-4.65-6.26-10.2s1.25-13.41,5.54-13.59"/><path class="cls-2" d="M508.65,310.91l-1.79-.9.9.45-.95-.32c0-.13.05-.37.09-.68.3-2.95,1.23-11.92,10.7-13.58,10.13-1.78,57.81-5.4,59.84-5.56,4.3-.06,25.57-.32,27.6.42a3.53,3.53,0,0,0,.85.24c.51-.11.8.13,1.42.65.46.34,3,.57,5.4.48h.39l2.44,2-1.28,1.54-1.86-1.55c-1.79.05-5.23,0-6.37-1l-.22-.18a4.79,4.79,0,0,1-1.45-.36c-1.48-.47-17.24-.44-26.83-.3-.44,0-49.55,3.77-59.58,5.53-8,1.4-8.77,9-9.06,11.81A3.84,3.84,0,0,1,508.65,310.91Z"/><line class="cls-3" x1="594.15" y1="302.41" x2="604.34" y2="302.41"/><path class="cls-2" d="M604.76,304.65l-.83-.55a5.34,5.34,0,0,1,3.58-2.55c.26,0,18.33.9,20.26.9l.27-.23c-2,0-19.76.37-20.5.33A4.52,4.52,0,0,0,604.76,304.65Z"/><path class="cls-7" d="M647.35,355.51c-.05-.67-.08-1.35-.08-2.05,0-5.71,1.8-10.75,4.53-13.73"/><line class="cls-7" x1="650.31" y1="341.4" x2="650.31" y2="355.35"/><path class="cls-7" d="M664.08,338c.72-.18,7.51-1.61,11.09,1.79"/><path class="cls-7" d="M664.08,335.5c.72-.18,7.51-1.61,11.09,1.79"/><path class="cls-2" d="M667.44,378.87h-.14c-4.82,0-16.16-6.12-16.16-11.7V339.26c0-3.37,4-6.45,6.39-8,3.52-2.25,7.35-3.71,9.77-3.71l.27,0,1.84.34c5.24.09,8,5.21,8,10.26v30.06c0,5.06-2.74,10.18-8,10.27Zm-.26-48.31c-4,.12-13,5.65-13,8.7v27.91c0,3.05,9,8.58,13,8.69l2.09-.35c3.36,0,5.12-3.66,5.12-7.27V338.18c0-3.61-1.76-7.26-5.12-7.26l-.27,0Z"/><line class="cls-3" x1="789.37" y1="405.89" x2="775.32" y2="418.95"/><rect class="cls-2" x="966.37" y="145.89" width="2" height="251"/><path class="cls-3" d="M968.37,395.83h-16a21,21,0,0,1-21-21V166.52a21,21,0,0,1,21-21h15"/><path class="cls-2" d="M193.37,86.89A1504.47,1504.47,0,0,1,367.73,74.14v1A1669.33,1669.33,0,0,0,193.37,86.89Z"/><path class="cls-2" d="M356.62,466.86c-103.47,0-165.25-14-165.25-14,1.06.21,69.41,14.42,176.88,12.88l0,1C364.39,466.83,360.49,466.86,356.62,466.86Z"/><path class="cls-6" d="M376.7,455.74c-.6,2.17-9,5.31-10.53,19.95a45,45,0,0,1,.46,6.54"/><path class="cls-3" d="M366.63,59.07s-.46,14,4.24,19.23l4.71,5.23"/><path class="cls-2" d="M500.51,395.51a5.53,5.53,0,0,1-3.73-1.56c-4.55-3.37-6.63-20.77-6.63-35.57s2.06-32,6.57-35.52a5.31,5.31,0,0,1,7.66.08c2.86,2.35,5.19,12.08,6.12,24.44l-1.62-1.29c-1-13.1-3.84-20.06-5.78-21.62l-.08-.06a3.28,3.28,0,0,0-5-.06l-.09.08c-2.86,2.12-5.82,15.41-5.82,33.95s3,31.94,5.85,34l.1.08a3.26,3.26,0,0,0,4.83,0l.1-.08c1.71-1.25,4.49-6.73,5.64-19.87l1.72-1.61c-.49,5.6-2.16,20.06-6.13,23.06A5.51,5.51,0,0,1,500.51,395.51Z"/><path class="cls-8" d="M508.41,358.54l2.65-7-.72-3.77-8.51-12a11.43,11.43,0,0,0-4.66.48c-2.57.8-5.06,6.35-5.06,6.35l-.16.24-.56,15.82.4,16,.32.88s2.49,5.54,5.06,6.35a11.43,11.43,0,0,0,4.66.48l8.51-12.05.72-3.77-2.65-7-3.77-.08s-4.26,1.69-4.26,2.09v3.77h-1.52V352.75h1.52v3.78c0,.4,4.26,2.09,4.26,2.09Z"/><path class="cls-8" d="M484.28,377.79c-4.94-1-8.79-9.37-8.79-19.53s3.78-18.36,8.65-19.5"/><path class="cls-8" d="M475.21,374.5c-2.6-3.53-4.3-9.49-4.3-16.24,0-6.06,1.37-11.48,3.53-15.08"/><path class="cls-8" d="M483.55,374.91c-2.77-3.47-4.61-9.63-4.61-16.65,0-6.73,1.69-12.67,4.26-16.2"/><polygon class="cls-2" points="479.5 375.17 474.11 375.17 474.11 342.14 478.78 342.14 478.78 343.45 475.92 351.8 475.7 365.27 479.5 373.86 479.5 375.17"/><polyline class="cls-9" points="445.37 342.94 474.61 342.94 474.61 375.08 443.37 375.08"/><path class="cls-3" d="M480.92,318.91l-4.35-1.47s-5.05,5.61-7.29,10.52a77.85,77.85,0,0,0-3.79,10.87l-1.26,2.24h4.63l-.21-2.24a58.24,58.24,0,0,1,5.54-6.88c2.87-2.94,5.47-4.41,6.1-8.13A36.4,36.4,0,0,0,480.92,318.91Z"/><path class="cls-3" d="M468.23,330.62c.56.07,4,1,5.47,0s6.59-6.8,6.59-6.8"/><path class="cls-3" d="M464.23,341.07l-1.54.49v1.54h7.43v-1.61l-1.26-.42Z"/><path class="cls-3" d="M480.92,399.13l-4.35,1.47s-5.05-5.61-7.29-10.52a77.85,77.85,0,0,1-3.79-10.87L464.23,377h4.63l-.21,2.24a58.24,58.24,0,0,0,5.54,6.88c2.87,2.94,5.47,4.41,6.1,8.13A36.4,36.4,0,0,1,480.92,399.13Z"/><path class="cls-3" d="M468.23,387.42c.56-.07,4-1,5.47,0s6.59,6.8,6.59,6.8"/><path class="cls-3" d="M464.23,377l-1.54-.49v-1.54h7.43v1.61l-1.26.42Z"/><path class="cls-2" d="M440.36,115.44l-.13-1.11-1.08.25c-5,1.12-10.65,2.31-11.45,2.31h-1L426,185.56c1.1,0,.65-5.12.66-6.23l2-60.55c2.29-.35,7.35-1.46,9.8-2,1.16,10.36,9.89,91,7.25,153.34h-.05l0,.54,0,.53h.05c2.63,62.3-6.09,143-7.25,153.34-2.45-.55-7.51-1.66-9.8-2L426,361.56l.38-14.64.29,77.48h1c.8,0,6.49,1.19,11.45,2.31l1.08.25.13-1.11c.11-.88,11.24-88.63,8.37-155.2C451.6,204.08,440.47,116.32,440.36,115.44Z"/><path class="cls-2" d="M499,405.39c-10.29,0-18.34-20.81-18.34-47.38s8-47.37,18.34-47.37,17.34,20.81,17.34,47.37S509.28,405.39,499,405.39Zm0-92.75c-8.86,0-16.34,20.78-16.34,45.37s7.48,45.38,16.34,45.38,16.34-20.78,16.34-45.38S507.86,312.64,499,312.64Z"/><path class="cls-6" d="M892,203.17h8.33a3.28,3.28,0,0,0,3.27-3.27v-5.18a3.28,3.28,0,0,0-3.27-3.27H892"/><path class="cls-6" d="M892,278.82h8.33a3.28,3.28,0,0,0,3.27-3.27v-5.18a3.28,3.28,0,0,0-3.27-3.26H892"/><path class="cls-6" d="M892,354.48h8.33a3.28,3.28,0,0,0,3.27-3.27V346a3.28,3.28,0,0,0-3.27-3.27H892"/><line class="cls-8" x1="497.22" y1="335.89" x2="497.22" y2="325.2"/><line class="cls-8" x1="501.56" y1="335.6" x2="501.56" y2="323.18"/><line class="cls-8" x1="496.93" y1="381.24" x2="496.93" y2="391.06"/><line class="cls-8" x1="501.56" y1="382.11" x2="501.56" y2="393.95"/></svg>